<svg xmlns="http://www.w3.org/2000/svg" xmlns:xlink="http://www.w3.org/1999/xlink" width="1344" zoomAndPan="magnify" viewBox="0 0 1008 1295.99994" height="1728" preserveAspectRatio="xMidYMid meet" version="1.0"><defs><g/><clipPath id="bed9630c38"><path d="M 181 340.621094 L 827 340.621094 L 827 719 L 181 719 Z M 181 340.621094 " clip-rule="nonzero"/></clipPath><clipPath id="9549496217"><path d="M 241 743 L 785 743 L 785 964.621094 L 241 964.621094 Z M 241 743 " clip-rule="nonzero"/></clipPath></defs><path fill="#66a2dd" d="M 585.371094 791.59375 L 422.414062 791.59375 L 422.414062 703.40625 L 585.371094 703.40625 L 585.371094 791.59375 " fill-opacity="1" fill-rule="nonzero"/><path stroke-linecap="round" transform="matrix(0.213374, 0, 0, -0.213479, 50.261489, 1106.585162)" fill="none" stroke-linejoin="round" d="M 2507.851069 1475.512675 L 1744.1347 1475.512675 L 1744.1347 1888.608934 L 2507.851069 1888.608934 Z M 2507.851069 1475.512675 " stroke="#29428f" stroke-width="40" stroke-opacity="1" stroke-miterlimit="10"/><path fill="#66a2dd" d="M 822.449219 678.273438 C 822.449219 698.230469 806.28125 714.398438 786.34375 714.398438 L 221.445312 714.398438 C 201.5 714.398438 185.335938 698.230469 185.335938 678.273438 L 185.335938 381.085938 C 185.335938 361.140625 201.5 344.972656 221.445312 344.972656 L 786.34375 344.972656 C 806.28125 344.972656 822.449219 361.140625 822.449219 381.085938 L 822.449219 678.273438 " fill-opacity="1" fill-rule="nonzero"/><g clip-path="url(#bed9630c38)"><path stroke-linecap="round" transform="matrix(0.213374, 0, 0, -0.213479, 50.261489, 1106.585162)" fill="none" stroke-linejoin="round" d="M 3618.944243 2006.33844 C 3618.944243 1912.853819 3543.171248 1837.118285 3449.731922 1837.118285 L 802.272154 1837.118285 C 708.796214 1837.118285 633.041526 1912.853819 633.041526 2006.33844 L 633.041526 3398.452338 C 633.041526 3491.882065 708.796214 3567.617599 802.272154 3567.617599 L 3449.731922 3567.617599 C 3543.171248 3567.617599 3618.944243 3491.882065 3618.944243 3398.452338 Z M 3618.944243 2006.33844 " stroke="#29428f" stroke-width="40" stroke-opacity="1" stroke-miterlimit="10"/></g><path fill="#ffffff" d="M 793.058594 682.695312 L 214.726562 682.695312 L 214.726562 376.675781 L 793.058594 376.675781 L 793.058594 682.695312 " fill-opacity="1" fill-rule="nonzero"/><path stroke-linecap="round" transform="matrix(0.213374, 0, 0, -0.213479, 50.261489, 1106.585162)" fill="none" stroke-linejoin="round" d="M 3481.201789 1985.625073 L 770.78398 1985.625073 L 770.78398 3419.110811 L 3481.201789 3419.110811 Z M 3481.201789 1985.625073 " stroke="#29428f" stroke-width="40" stroke-opacity="1" stroke-miterlimit="10"/><path fill="#66a2dd" d="M 634.503906 803.382812 C 634.503906 811.640625 627.820312 818.328125 619.570312 818.328125 L 388.21875 818.328125 C 379.964844 818.328125 373.28125 811.640625 373.28125 803.382812 C 373.28125 795.128906 379.964844 788.449219 388.21875 788.449219 L 619.570312 788.449219 C 627.820312 788.449219 634.503906 795.128906 634.503906 803.382812 " fill-opacity="1" fill-rule="nonzero"/><path stroke-linecap="round" transform="matrix(0.213374, 0, 0, -0.213479, 50.261489, 1106.585162)" fill="none" stroke-linejoin="round" d="M 2738.117496 1420.289229 C 2738.117496 1381.6072 2706.794085 1350.280977 2668.129537 1350.280977 L 1583.874539 1350.280977 C 1545.191684 1350.280977 1513.868273 1381.6072 1513.868273 1420.289229 C 1513.868273 1458.95296 1545.191684 1490.242586 1583.874539 1490.242586 L 2668.129537 1490.242586 C 2706.794085 1490.242586 2738.117496 1458.95296 2738.117496 1420.289229 Z M 2738.117496 1420.289229 " stroke="#29428f" stroke-width="40" stroke-opacity="1" stroke-miterlimit="10"/><path fill="#66a2dd" d="M 780.515625 930.171875 C 780.515625 946.925781 766.964844 960.492188 750.234375 960.492188 L 276.253906 960.492188 C 259.550781 960.492188 245.972656 946.925781 245.972656 930.171875 L 245.972656 778.34375 C 245.972656 761.632812 259.550781 748.054688 276.253906 748.054688 L 750.234375 748.054688 C 766.964844 748.054688 780.515625 761.632812 780.515625 778.34375 L 780.515625 930.171875 " fill-opacity="1" fill-rule="nonzero"/><g clip-path="url(#9549496217)"><path stroke-linecap="round" transform="matrix(0.213374, 0, 0, -0.213479, 50.261489, 1106.585162)" fill="none" stroke-linejoin="round" d="M 3422.417762 826.371867 C 3422.417762 747.891629 3358.910508 684.342581 3280.501293 684.342581 L 1059.138765 684.342581 C 980.857699 684.342581 917.222297 747.891629 917.222297 826.371867 L 917.222297 1537.579582 C 917.222297 1615.858542 980.857699 1679.462484 1059.138765 1679.462484 L 3280.501293 1679.462484 C 3358.910508 1679.462484 3422.417762 1615.858542 3422.417762 1537.579582 Z M 3422.417762 826.371867 " stroke="#29428f" stroke-width="40" stroke-opacity="1" stroke-miterlimit="10"/></g><path fill="#9cd1f1" d="M 738.917969 910.058594 C 738.917969 922.359375 728.941406 932.324219 716.636719 932.324219 L 308.84375 932.324219 C 296.558594 932.324219 286.589844 922.359375 286.589844 910.058594 L 286.589844 798.480469 C 286.589844 786.179688 296.558594 776.214844 308.84375 776.214844 L 716.636719 776.214844 C 728.941406 776.214844 738.917969 786.179688 738.917969 798.480469 L 738.917969 910.058594 " fill-opacity="1" fill-rule="nonzero"/><path fill="#ffffff" d="M 348.652344 813.5 C 348.652344 821.738281 341.976562 828.417969 333.738281 828.417969 L 320.371094 828.417969 C 312.136719 828.417969 305.460938 821.738281 305.460938 813.5 C 305.460938 805.261719 312.136719 798.582031 320.371094 798.582031 L 333.738281 798.582031 C 341.976562 798.582031 348.652344 805.261719 348.652344 813.5 " fill-opacity="1" fill-rule="nonzero"/><path fill="#ffffff" d="M 401.769531 813.5 C 401.769531 821.738281 395.09375 828.417969 386.867188 828.417969 L 373.496094 828.417969 C 365.261719 828.417969 358.585938 821.738281 358.585938 813.5 C 358.585938 805.261719 365.261719 798.582031 373.496094 798.582031 L 386.867188 798.582031 C 395.09375 798.582031 401.769531 805.261719 401.769531 813.5 " fill-opacity="1" fill-rule="nonzero"/><path fill="#ffffff" d="M 454.90625 813.5 C 454.90625 821.738281 448.230469 828.417969 439.992188 828.417969 L 426.625 828.417969 C 418.390625 828.417969 411.722656 821.738281 411.722656 813.5 C 411.722656 805.261719 418.390625 798.582031 426.625 798.582031 L 439.992188 798.582031 C 448.230469 798.582031 454.90625 805.261719 454.90625 813.5 " fill-opacity="1" fill-rule="nonzero"/><path fill="#ffffff" d="M 508.03125 813.5 C 508.03125 821.738281 501.355469 828.417969 493.121094 828.417969 L 479.75 828.417969 C 471.523438 828.417969 464.847656 821.738281 464.847656 813.5 C 464.847656 805.261719 471.523438 798.582031 479.75 798.582031 L 493.121094 798.582031 C 501.355469 798.582031 508.03125 805.261719 508.03125 813.5 " fill-opacity="1" fill-rule="nonzero"/><path fill="#ffffff" d="M 561.160156 813.5 C 561.160156 821.738281 554.480469 828.417969 546.253906 828.417969 L 532.886719 828.417969 C 524.652344 828.417969 517.964844 821.738281 517.964844 813.5 C 517.964844 805.261719 524.652344 798.582031 532.886719 798.582031 L 546.253906 798.582031 C 554.480469 798.582031 561.160156 805.261719 561.160156 813.5 " fill-opacity="1" fill-rule="nonzero"/><path fill="#ffffff" d="M 614.292969 813.5 C 614.292969 821.738281 607.617188 828.417969 599.382812 828.417969 L 586.011719 828.417969 C 577.777344 828.417969 571.101562 821.738281 571.101562 813.5 C 571.101562 805.261719 577.777344 798.582031 586.011719 798.582031 L 599.382812 798.582031 C 607.617188 798.582031 614.292969 805.261719 614.292969 813.5 " fill-opacity="1" fill-rule="nonzero"/><path fill="#ffffff" d="M 667.410156 813.5 C 667.410156 821.738281 660.742188 828.417969 652.507812 828.417969 L 639.140625 828.417969 C 630.90625 828.417969 624.230469 821.738281 624.230469 813.5 C 624.230469 805.261719 630.90625 798.582031 639.140625 798.582031 L 652.507812 798.582031 C 660.742188 798.582031 667.410156 805.261719 667.410156 813.5 " fill-opacity="1" fill-rule="nonzero"/><path fill="#ffffff" d="M 720.546875 813.5 C 720.546875 821.738281 713.871094 828.417969 705.636719 828.417969 L 692.273438 828.417969 C 684.03125 828.417969 677.355469 821.738281 677.355469 813.5 C 677.355469 805.261719 684.03125 798.582031 692.273438 798.582031 L 705.636719 798.582031 C 713.871094 798.582031 720.546875 805.261719 720.546875 813.5 " fill-opacity="1" fill-rule="nonzero"/><path fill="#ffffff" d="M 348.894531 854.734375 C 348.894531 862.976562 342.214844 869.65625 333.980469 869.65625 L 320.613281 869.65625 C 312.386719 869.65625 305.710938 862.976562 305.710938 854.734375 C 305.710938 846.496094 312.386719 839.824219 320.613281 839.824219 L 333.980469 839.824219 C 342.214844 839.824219 348.894531 846.496094 348.894531 854.734375 " fill-opacity="1" fill-rule="nonzero"/><path fill="#ffffff" d="M 402.019531 854.734375 C 402.019531 862.976562 395.34375 869.65625 387.109375 869.65625 L 373.746094 869.65625 C 365.511719 869.65625 358.828125 862.976562 358.828125 854.734375 C 358.828125 846.496094 365.511719 839.824219 373.746094 839.824219 L 387.109375 839.824219 C 395.34375 839.824219 402.019531 846.496094 402.019531 854.734375 " fill-opacity="1" fill-rule="nonzero"/><path fill="#ffffff" d="M 455.15625 854.734375 C 455.15625 862.976562 448.480469 869.65625 440.242188 869.65625 L 426.875 869.65625 C 418.640625 869.65625 411.964844 862.976562 411.964844 854.734375 C 411.964844 846.496094 418.640625 839.824219 426.875 839.824219 L 440.242188 839.824219 C 448.480469 839.824219 455.15625 846.496094 455.15625 854.734375 " fill-opacity="1" fill-rule="nonzero"/><path fill="#ffffff" d="M 508.273438 854.734375 C 508.273438 862.976562 501.605469 869.65625 493.371094 869.65625 L 480 869.65625 C 471.773438 869.65625 465.089844 862.976562 465.089844 854.734375 C 465.089844 846.496094 471.773438 839.824219 480 839.824219 L 493.371094 839.824219 C 501.605469 839.824219 508.273438 846.496094 508.273438 854.734375 " fill-opacity="1" fill-rule="nonzero"/><path fill="#ffffff" d="M 561.410156 854.734375 C 561.410156 862.976562 554.730469 869.65625 546.496094 869.65625 L 533.136719 869.65625 C 524.894531 869.65625 518.226562 862.976562 518.226562 854.734375 C 518.226562 846.496094 524.894531 839.824219 533.136719 839.824219 L 546.496094 839.824219 C 554.730469 839.824219 561.410156 846.496094 561.410156 854.734375 " fill-opacity="1" fill-rule="nonzero"/><path fill="#ffffff" d="M 614.535156 854.734375 C 614.535156 862.976562 607.859375 869.65625 599.632812 869.65625 L 586.253906 869.65625 C 578.027344 869.65625 571.351562 862.976562 571.351562 854.734375 C 571.351562 846.496094 578.027344 839.824219 586.253906 839.824219 L 599.632812 839.824219 C 607.859375 839.824219 614.535156 846.496094 614.535156 854.734375 " fill-opacity="1" fill-rule="nonzero"/><path fill="#ffffff" d="M 667.671875 854.734375 C 667.671875 862.976562 660.984375 869.65625 652.757812 869.65625 L 639.390625 869.65625 C 631.15625 869.65625 624.480469 862.976562 624.480469 854.734375 C 624.480469 846.496094 631.15625 839.824219 639.390625 839.824219 L 652.757812 839.824219 C 660.984375 839.824219 667.671875 846.496094 667.671875 854.734375 " fill-opacity="1" fill-rule="nonzero"/><path fill="#ffffff" d="M 720.796875 854.734375 C 720.796875 862.976562 714.113281 869.65625 705.886719 869.65625 L 692.515625 869.65625 C 684.28125 869.65625 677.605469 862.976562 677.605469 854.734375 C 677.605469 846.496094 684.28125 839.824219 692.515625 839.824219 L 705.886719 839.824219 C 714.113281 839.824219 720.796875 846.496094 720.796875 854.734375 " fill-opacity="1" fill-rule="nonzero"/><path fill="#ffffff" d="M 348.894531 895.972656 C 348.894531 904.210938 342.214844 910.890625 333.980469 910.890625 L 320.613281 910.890625 C 312.386719 910.890625 305.710938 904.210938 305.710938 895.972656 C 305.710938 887.734375 312.386719 881.0625 320.613281 881.0625 L 333.980469 881.0625 C 342.214844 881.0625 348.894531 887.734375 348.894531 895.972656 " fill-opacity="1" fill-rule="nonzero"/><path fill="#ffffff" d="M 402.019531 895.972656 C 402.019531 904.210938 395.34375 910.890625 387.109375 910.890625 L 373.746094 910.890625 C 365.511719 910.890625 358.828125 904.210938 358.828125 895.972656 C 358.828125 887.734375 365.511719 881.0625 373.746094 881.0625 L 387.109375 881.0625 C 395.34375 881.0625 402.019531 887.734375 402.019531 895.972656 " fill-opacity="1" fill-rule="nonzero"/><path fill="#ffffff" d="M 455.15625 895.972656 C 455.15625 904.210938 448.480469 910.890625 440.242188 910.890625 L 426.875 910.890625 C 418.640625 910.890625 411.964844 904.210938 411.964844 895.972656 C 411.964844 887.734375 418.640625 881.0625 426.875 881.0625 L 440.242188 881.0625 C 448.480469 881.0625 455.15625 887.734375 455.15625 895.972656 " fill-opacity="1" fill-rule="nonzero"/><path fill="#ffffff" d="M 508.273438 895.972656 C 508.273438 904.210938 501.605469 910.890625 493.371094 910.890625 L 480 910.890625 C 471.773438 910.890625 465.089844 904.210938 465.089844 895.972656 C 465.089844 887.734375 471.773438 881.0625 480 881.0625 L 493.371094 881.0625 C 501.605469 881.0625 508.273438 887.734375 508.273438 895.972656 " fill-opacity="1" fill-rule="nonzero"/><path fill="#ffffff" d="M 561.410156 895.972656 C 561.410156 904.210938 554.730469 910.890625 546.496094 910.890625 L 533.136719 910.890625 C 524.894531 910.890625 518.226562 904.210938 518.226562 895.972656 C 518.226562 887.734375 524.894531 881.0625 533.136719 881.0625 L 546.496094 881.0625 C 554.730469 881.0625 561.410156 887.734375 561.410156 895.972656 " fill-opacity="1" fill-rule="nonzero"/><path fill="#ffffff" d="M 614.535156 895.972656 C 614.535156 904.210938 607.859375 910.890625 599.632812 910.890625 L 586.253906 910.890625 C 578.027344 910.890625 571.351562 904.210938 571.351562 895.972656 C 571.351562 887.734375 578.027344 881.0625 586.253906 881.0625 L 599.632812 881.0625 C 607.859375 881.0625 614.535156 887.734375 614.535156 895.972656 " fill-opacity="1" fill-rule="nonzero"/><path fill="#ffffff" d="M 667.671875 895.972656 C 667.671875 904.210938 660.984375 910.890625 652.757812 910.890625 L 639.390625 910.890625 C 631.15625 910.890625 624.480469 904.210938 624.480469 895.972656 C 624.480469 887.734375 631.15625 881.0625 639.390625 881.0625 L 652.757812 881.0625 C 660.984375 881.0625 667.671875 887.734375 667.671875 895.972656 " fill-opacity="1" fill-rule="nonzero"/><path fill="#ffffff" d="M 720.796875 895.972656 C 720.796875 904.210938 714.113281 910.890625 705.886719 910.890625 L 692.515625 910.890625 C 684.28125 910.890625 677.605469 904.210938 677.605469 895.972656 C 677.605469 887.734375 684.28125 881.0625 692.515625 881.0625 L 705.886719 881.0625 C 714.113281 881.0625 720.796875 887.734375 720.796875 895.972656 " fill-opacity="1" fill-rule="nonzero"/><g fill="#000000" fill-opacity="1"><g transform="translate(345.835706, 507.309042)"><g><path d="M 27.984375 -46.640625 C 32.390625 -46.640625 36.34375 -45.972656 39.84375 -44.640625 C 43.351562 -43.316406 46.140625 -41.351562 48.203125 -38.75 C 50.273438 -36.15625 51.3125 -32.988281 51.3125 -29.25 L 37.25 -29.25 C 37.25 -31.164062 36.40625 -32.710938 34.71875 -33.890625 C 33.03125 -35.066406 30.988281 -35.65625 28.59375 -35.65625 C 25.125 -35.65625 22.5 -34.734375 20.71875 -32.890625 C 18.945312 -31.046875 18.0625 -28.4375 18.0625 -25.0625 L 18.0625 -20.796875 C 18.0625 -17.421875 18.945312 -14.8125 20.71875 -12.96875 C 22.5 -11.125 25.125 -10.203125 28.59375 -10.203125 C 30.988281 -10.203125 33.03125 -10.765625 34.71875 -11.890625 C 36.40625 -13.023438 37.25 -14.484375 37.25 -16.265625 L 26.859375 -16.265625 L 26.859375 -25.59375 L 51.3125 -25.59375 L 51.3125 0 L 43.71875 0 L 42.25 -4.53125 C 38.070312 -0.976562 32.609375 0.796875 25.859375 0.796875 C 18.265625 0.796875 12.554688 -1.1875 8.734375 -5.15625 C 4.910156 -9.132812 3 -15.054688 3 -22.921875 C 3 -30.703125 5.164062 -36.597656 9.5 -40.609375 C 13.832031 -44.628906 19.992188 -46.640625 27.984375 -46.640625 Z M 27.984375 -46.640625 "/></g></g></g><g fill="#000000" fill-opacity="1"><g transform="translate(402.681457, 507.309042)"><g><path d="M 5.59375 0 L 5.59375 -45.84375 L 20.328125 -45.84375 L 20.328125 0 Z M 5.59375 0 "/></g></g></g><g fill="#000000" fill-opacity="1"><g transform="translate(429.938175, 507.309042)"><g><path d="M 31.328125 -34.125 L 31.328125 0 L 16.59375 0 L 16.59375 -34.125 L 1.53125 -34.125 L 1.53125 -45.84375 L 46.3125 -45.84375 L 46.3125 -34.125 Z M 31.328125 -34.125 "/></g></g></g><g fill="#000000" fill-opacity="1"><g transform="translate(479.386674, 507.309042)"><g><path d="M 35.859375 0 L 35.859375 -17.390625 L 19.65625 -17.390625 L 19.65625 0 L 4.9375 0 L 4.9375 -45.84375 L 19.65625 -45.84375 L 19.65625 -29.125 L 35.859375 -29.125 L 35.859375 -45.84375 L 50.578125 -45.84375 L 50.578125 0 Z M 35.859375 0 "/></g></g></g><g fill="#000000" fill-opacity="1"><g transform="translate(536.232426, 507.309042)"><g><path d="M 50.578125 -18.453125 C 50.578125 -12.191406 48.597656 -7.414062 44.640625 -4.125 C 40.691406 -0.84375 35.078125 0.796875 27.796875 0.796875 C 20.503906 0.796875 14.867188 -0.84375 10.890625 -4.125 C 6.921875 -7.414062 4.9375 -12.191406 4.9375 -18.453125 L 4.9375 -45.84375 L 19.65625 -45.84375 L 19.65625 -18.65625 C 19.65625 -16.082031 20.34375 -14.03125 21.71875 -12.5 C 23.101562 -10.96875 25.101562 -10.203125 27.71875 -10.203125 C 30.34375 -10.203125 32.351562 -10.976562 33.75 -12.53125 C 35.15625 -14.082031 35.859375 -16.125 35.859375 -18.65625 L 35.859375 -45.84375 L 50.578125 -45.84375 Z M 50.578125 -18.453125 "/></g></g></g><g fill="#000000" fill-opacity="1"><g transform="translate(593.078188, 507.309042)"><g><path d="M 35.453125 -45.84375 C 37.765625 -45.84375 39.882812 -45.363281 41.8125 -44.40625 C 43.75 -43.457031 45.28125 -42.113281 46.40625 -40.375 C 47.539062 -38.644531 48.109375 -36.71875 48.109375 -34.59375 C 48.109375 -28.945312 45.554688 -25.390625 40.453125 -23.921875 L 40.453125 -23.65625 C 46.273438 -22.320312 49.1875 -18.5 49.1875 -12.1875 C 49.1875 -9.789062 48.597656 -7.671875 47.421875 -5.828125 C 46.242188 -3.984375 44.628906 -2.550781 42.578125 -1.53125 C 40.535156 -0.507812 38.296875 0 35.859375 0 L 4.9375 0 L 4.9375 -45.84375 Z M 19.65625 -27.984375 L 29.78125 -27.984375 C 30.757812 -27.984375 31.570312 -28.328125 32.21875 -29.015625 C 32.863281 -29.710938 33.1875 -30.570312 33.1875 -31.59375 L 33.1875 -32.25 C 33.1875 -33.226562 32.851562 -34.0625 32.1875 -34.75 C 31.519531 -35.4375 30.71875 -35.78125 29.78125 -35.78125 L 19.65625 -35.78125 Z M 19.65625 -10.65625 L 30.859375 -10.65625 C 31.835938 -10.65625 32.644531 -11 33.28125 -11.6875 C 33.925781 -12.382812 34.25 -13.242188 34.25 -14.265625 L 34.25 -14.921875 C 34.25 -15.941406 33.925781 -16.796875 33.28125 -17.484375 C 32.644531 -18.179688 31.835938 -18.53125 30.859375 -18.53125 L 19.65625 -18.53125 Z M 19.65625 -10.65625 "/></g></g></g><g fill="#000000" fill-opacity="1"><g transform="translate(646.258633, 507.309042)"><g><path d="M -0.140625 3.203125 L 10.53125 -49.046875 L 18.59375 -49.046875 L 8 3.203125 Z M -0.140625 3.203125 "/></g></g></g><g fill="#000000" fill-opacity="1"><g transform="translate(219.14103, 600.230384)"><g><path d="M 44.3125 0 L 44.3125 -16.53125 C 44.3125 -18.570312 44.390625 -20.671875 44.546875 -22.828125 C 44.703125 -24.984375 44.867188 -26.789062 45.046875 -28.25 C 45.222656 -29.71875 45.332031 -30.648438 45.375 -31.046875 L 45.109375 -31.046875 L 36.65625 0 L 25.125 0 L 16.59375 -30.984375 L 16.328125 -30.984375 C 16.367188 -30.585938 16.488281 -29.664062 16.6875 -28.21875 C 16.894531 -26.78125 17.085938 -24.984375 17.265625 -22.828125 C 17.441406 -20.671875 17.53125 -18.570312 17.53125 -16.53125 L 17.53125 0 L 4 0 L 4 -45.84375 L 24.796875 -45.84375 L 31.71875 -19.390625 L 31.984375 -19.390625 L 38.84375 -45.84375 L 58.90625 -45.84375 L 58.90625 0 Z M 44.3125 0 "/></g></g></g><g fill="#000000" fill-opacity="1"><g transform="translate(283.384045, 600.230384)"><g><path d="M 35.65625 0 L 33.71875 -6.46875 L 17.65625 -6.46875 L 15.734375 0 L 0.671875 0 L 17.390625 -45.84375 L 34.515625 -45.84375 L 51.25 0 Z M 20.71875 -16.734375 L 30.65625 -16.734375 L 25.859375 -33.046875 L 25.59375 -33.046875 Z M 20.71875 -16.734375 "/></g></g></g><g fill="#000000" fill-opacity="1"><g transform="translate(336.56449, 600.230384)"><g><path d="M 31.328125 -34.125 L 31.328125 0 L 16.59375 0 L 16.59375 -34.125 L 1.53125 -34.125 L 1.53125 -45.84375 L 46.3125 -45.84375 L 46.3125 -34.125 Z M 31.328125 -34.125 "/></g></g></g><g fill="#000000" fill-opacity="1"><g transform="translate(386.012989, 600.230384)"><g><path d="M 4.9375 -45.84375 L 44.578125 -45.84375 L 44.578125 -34.859375 L 19.65625 -34.859375 L 19.65625 -28.515625 L 40.984375 -28.515625 L 40.984375 -18 L 19.65625 -18 L 19.65625 -11 L 45.046875 -11 L 45.046875 0 L 4.9375 0 Z M 4.9375 -45.84375 "/></g></g></g><g fill="#000000" fill-opacity="1"><g transform="translate(435.461488, 600.230384)"><g><path d="M 50.578125 -18.453125 C 50.578125 -12.191406 48.597656 -7.414062 44.640625 -4.125 C 40.691406 -0.84375 35.078125 0.796875 27.796875 0.796875 C 20.503906 0.796875 14.867188 -0.84375 10.890625 -4.125 C 6.921875 -7.414062 4.9375 -12.191406 4.9375 -18.453125 L 4.9375 -45.84375 L 19.65625 -45.84375 L 19.65625 -18.65625 C 19.65625 -16.082031 20.34375 -14.03125 21.71875 -12.5 C 23.101562 -10.96875 25.101562 -10.203125 27.71875 -10.203125 C 30.34375 -10.203125 32.351562 -10.976562 33.75 -12.53125 C 35.15625 -14.082031 35.859375 -16.125 35.859375 -18.65625 L 35.859375 -45.84375 L 50.578125 -45.84375 Z M 50.578125 -18.453125 "/></g></g></g><g fill="#000000" fill-opacity="1"><g transform="translate(492.307229, 600.230384)"><g><path d="M 24.1875 -46.640625 C 30.050781 -46.640625 34.867188 -45.453125 38.640625 -43.078125 C 42.421875 -40.703125 44.359375 -37.179688 44.453125 -32.515625 L 44.453125 -31.71875 L 30.65625 -31.71875 L 30.65625 -31.984375 C 30.65625 -33.316406 30.164062 -34.425781 29.1875 -35.3125 C 28.207031 -36.207031 26.71875 -36.65625 24.71875 -36.65625 C 22.769531 -36.65625 21.269531 -36.363281 20.21875 -35.78125 C 19.175781 -35.207031 18.65625 -34.5 18.65625 -33.65625 C 18.65625 -32.457031 19.363281 -31.566406 20.78125 -30.984375 C 22.207031 -30.410156 24.5 -29.8125 27.65625 -29.1875 C 31.34375 -28.4375 34.375 -27.648438 36.75 -26.828125 C 39.125 -26.003906 41.203125 -24.65625 42.984375 -22.78125 C 44.765625 -20.914062 45.675781 -18.382812 45.71875 -15.1875 C 45.71875 -9.769531 43.882812 -5.75 40.21875 -3.125 C 36.550781 -0.507812 31.648438 0.796875 25.515625 0.796875 C 18.367188 0.796875 12.804688 -0.398438 8.828125 -2.796875 C 4.847656 -5.191406 2.859375 -9.4375 2.859375 -15.53125 L 16.796875 -15.53125 C 16.796875 -13.21875 17.394531 -11.671875 18.59375 -10.890625 C 19.789062 -10.117188 21.65625 -9.734375 24.1875 -9.734375 C 26.050781 -9.734375 27.59375 -9.929688 28.8125 -10.328125 C 30.039062 -10.722656 30.65625 -11.546875 30.65625 -12.796875 C 30.65625 -13.910156 29.976562 -14.742188 28.625 -15.296875 C 27.269531 -15.847656 25.054688 -16.4375 21.984375 -17.0625 C 18.253906 -17.863281 15.164062 -18.695312 12.71875 -19.5625 C 10.28125 -20.425781 8.148438 -21.859375 6.328125 -23.859375 C 4.503906 -25.859375 3.59375 -28.566406 3.59375 -31.984375 C 3.59375 -37.003906 5.535156 -40.703125 9.421875 -43.078125 C 13.316406 -45.453125 18.238281 -46.640625 24.1875 -46.640625 Z M 24.1875 -46.640625 "/></g></g></g><g fill="#000000" fill-opacity="1"><g transform="translate(541.755717, 600.230384)"><g><path d="M 4.9375 -45.84375 L 41.984375 -45.84375 L 41.984375 -34.859375 L 19.65625 -34.859375 L 19.65625 -26.984375 L 38.84375 -26.984375 L 38.84375 -16.453125 L 19.65625 -16.453125 L 19.65625 0 L 4.9375 0 Z M 4.9375 -45.84375 "/></g></g></g><g fill="#000000" fill-opacity="1"><g transform="translate(587.538909, 600.230384)"><g><path d="M 24.1875 -46.640625 C 30.050781 -46.640625 34.867188 -45.453125 38.640625 -43.078125 C 42.421875 -40.703125 44.359375 -37.179688 44.453125 -32.515625 L 44.453125 -31.71875 L 30.65625 -31.71875 L 30.65625 -31.984375 C 30.65625 -33.316406 30.164062 -34.425781 29.1875 -35.3125 C 28.207031 -36.207031 26.71875 -36.65625 24.71875 -36.65625 C 22.769531 -36.65625 21.269531 -36.363281 20.21875 -35.78125 C 19.175781 -35.207031 18.65625 -34.5 18.65625 -33.65625 C 18.65625 -32.457031 19.363281 -31.566406 20.78125 -30.984375 C 22.207031 -30.410156 24.5 -29.8125 27.65625 -29.1875 C 31.34375 -28.4375 34.375 -27.648438 36.75 -26.828125 C 39.125 -26.003906 41.203125 -24.65625 42.984375 -22.78125 C 44.765625 -20.914062 45.675781 -18.382812 45.71875 -15.1875 C 45.71875 -9.769531 43.882812 -5.75 40.21875 -3.125 C 36.550781 -0.507812 31.648438 0.796875 25.515625 0.796875 C 18.367188 0.796875 12.804688 -0.398438 8.828125 -2.796875 C 4.847656 -5.191406 2.859375 -9.4375 2.859375 -15.53125 L 16.796875 -15.53125 C 16.796875 -13.21875 17.394531 -11.671875 18.59375 -10.890625 C 19.789062 -10.117188 21.65625 -9.734375 24.1875 -9.734375 C 26.050781 -9.734375 27.59375 -9.929688 28.8125 -10.328125 C 30.039062 -10.722656 30.65625 -11.546875 30.65625 -12.796875 C 30.65625 -13.910156 29.976562 -14.742188 28.625 -15.296875 C 27.269531 -15.847656 25.054688 -16.4375 21.984375 -17.0625 C 18.253906 -17.863281 15.164062 -18.695312 12.71875 -19.5625 C 10.28125 -20.425781 8.148438 -21.859375 6.328125 -23.859375 C 4.503906 -25.859375 3.59375 -28.566406 3.59375 -31.984375 C 3.59375 -37.003906 5.535156 -40.703125 9.421875 -43.078125 C 13.316406 -45.453125 18.238281 -46.640625 24.1875 -46.640625 Z M 24.1875 -46.640625 "/></g></g></g><g fill="#000000" fill-opacity="1"><g transform="translate(636.987397, 600.230384)"><g><path d="M 24.796875 -45.84375 C 40.828125 -45.84375 48.84375 -38.203125 48.84375 -22.921875 C 48.84375 -7.640625 40.828125 0 24.796875 0 L 4.9375 0 L 4.9375 -45.84375 Z M 19.65625 -11 L 24.53125 -11 C 30.695312 -11 33.78125 -14.304688 33.78125 -20.921875 L 33.78125 -24.921875 C 33.78125 -31.546875 30.695312 -34.859375 24.53125 -34.859375 L 19.65625 -34.859375 Z M 19.65625 -11 "/></g></g></g><g fill="#000000" fill-opacity="1"><g transform="translate(690.167842, 600.230384)"><g><path d="M 4.9375 -45.84375 L 44.578125 -45.84375 L 44.578125 -34.859375 L 19.65625 -34.859375 L 19.65625 -28.515625 L 40.984375 -28.515625 L 40.984375 -18 L 19.65625 -18 L 19.65625 -11 L 45.046875 -11 L 45.046875 0 L 4.9375 0 Z M 4.9375 -45.84375 "/></g></g></g><g fill="#000000" fill-opacity="1"><g transform="translate(739.61633, 600.230384)"><g><path d="M 17.390625 0 L 1.140625 -45.84375 L 16.859375 -45.84375 L 26.0625 -15.1875 L 26.328125 -15.1875 L 35.59375 -45.84375 L 50.640625 -45.84375 L 34.453125 0 Z M 17.390625 0 "/></g></g></g></svg>